<?xml version="1.0"?>
<svg xmlns="http://www.w3.org/2000/svg" viewBox="0 0 64 64" width="52" height="52"><g id="Filled_outline" data-name="Filled outline"><rect x="46" y="38" width="2" height="2" style="fill:#f98c96"/><path d="M51.919,28.444c0,2.762-.895,5.556-2,5.556-1.249,0-2-2.794-2-5.556s.9-4.444,2-4.444S51.919,25.683,51.919,28.444Z" style="fill:#f3bb59"/><path d="M57.569,26c1.171,1.172,1.752,2.247.87,3.13s-3.023.366-4.195-.8-1.753-2.247-.87-3.13S56.4,24.828,57.569,26Z" style="fill:#f3bb59"/><path d="M42.3,26c-1.171,1.172-1.753,2.247-.87,3.13s3.023.366,4.2-.8,1.753-2.247.87-3.13S43.469,24.828,42.3,26Z" style="fill:#f3bb59"/><polygon points="39 61 3 61 3 39 8 33 34 33 39 39 39 61" style="fill:#f3bb59"/><path d="M31,33V50a2,2,0,0,1-4,0V42a2,2,0,0,1-4,0v5a2,2,0,0,1-4,0V33Z" style="fill:#f4ef40"/><path d="M25,5a2,2,0,0,0-2,2V5a2,2,0,0,0-4,0,2,2,0,0,0-4,0V19a2,2,0,0,0,4,0V13a2,2,0,0,0,4,0v3a2,2,0,0,0,4,0V7A2,2,0,0,0,25,5Z" style="fill:#f4ef40"/><rect x="27" y="7" width="20" height="4" style="fill:#ad6327"/><rect x="56" y="45" width="2" height="2" style="fill:#f98c96"/><rect x="56" y="49" width="2" height="2" style="fill:#f98c96"/><rect x="54" y="47" width="2" height="2" style="fill:#f98c96"/><rect x="58" y="47" width="2" height="2" style="fill:#f98c96"/><rect x="46" y="42" width="2" height="2" style="fill:#f98c96"/><rect x="44" y="40" width="2" height="2" style="fill:#f98c96"/><rect x="48" y="40" width="2" height="2" style="fill:#f98c96"/><rect x="5" y="25" width="32" height="8" style="fill:#e97131"/><rect x="3" y="38" width="13" height="2" style="fill:#ad6327"/><rect x="14" y="56" width="2" height="2" style="fill:#ad6327"/><rect x="34" y="38" width="5" height="2" style="fill:#ad6327"/><rect x="18" y="56" width="21" height="2" style="fill:#ad6327"/><rect x="5" y="28" width="9" height="2" style="fill:#f3bb59"/><rect x="23" y="28" width="11" height="2" style="fill:#f3bb59"/><rect x="15" y="3" width="4" height="12" rx="2" ry="2" style="fill:#e97131"/><rect x="11" y="5" width="4" height="8" rx="2" ry="2" style="fill:#f3bb59"/><rect x="23" y="5" width="4" height="8" rx="2" ry="2" style="fill:#e97131"/><rect x="19" y="3" width="4" height="12" rx="2" ry="2" style="fill:#f3bb59"/><path d="M58.858,14,47,13.122V4.878l11.858-.873A2.026,2.026,0,0,1,61,6.061v5.878A2.026,2.026,0,0,1,58.858,14Z" style="fill:#66342e"/><path d="M53.926,18.707l-1.414-1.414-1.761,1.761a2.648,2.648,0,0,0-1.064,0l-1.761-1.761-1.414,1.414,1.4,1.4A2.972,2.972,0,0,0,47.219,22a3,3,0,1,0,5.307-1.894Z" style="fill:#e97131"/><rect x="56" y="45" width="2" height="2"/><rect x="56" y="49" width="2" height="2"/><rect x="54" y="47" width="2" height="2"/><rect x="58" y="47" width="2" height="2"/><rect x="46" y="38" width="2" height="2"/><rect x="46" y="42" width="2" height="2"/><rect x="44" y="40" width="2" height="2"/><rect x="48" y="40" width="2" height="2"/><path d="M40,38.638,36.135,34H38V24H4V34H5.865L2,38.638V62H40ZM6,32V30h8V28H6V26H36v6ZM26,42a1,1,0,0,1-2,0H22v5a1,1,0,0,1-2,0V34H30V50a1,1,0,0,1-2,0V42ZM4,60V40H16V38H5.135l3.333-4H18V47a3,3,0,0,0,6,0V44.829a3.1,3.1,0,0,0,2,0V50a3,3,0,0,0,6,0V34h1.532l3.333,4H34v2h4V56H18v2H38v2Z"/><rect x="14" y="56" width="2" height="2"/><rect x="23" y="28" width="11" height="2"/><path d="M47.2,24.488c-1.351-1.352-4.125-.677-5.609.8-2.237,2.237-1.708,3.706-.87,4.544a2.736,2.736,0,0,0,1.985.73,5.42,5.42,0,0,0,3.624-1.535c.227-.226.418-.441.593-.65,0,.022,0,.041,0,.062,0,2.435.632,6.556,3,6.556,2.185,0,3-4.021,3-6.556,0-.035,0-.065,0-.1.182.221.383.448.623.688a5.418,5.418,0,0,0,3.624,1.535,2.737,2.737,0,0,0,1.985-.73c.838-.838,1.367-2.307-.87-4.544a5.492,5.492,0,0,0-2.709-1.444,3.114,3.114,0,0,0-2.9.639,2.644,2.644,0,0,0-.357.463,4.957,4.957,0,0,0-.28-.575,2.954,2.954,0,0,0,.5-4.27l1.4-1.4-1.414-1.414-1.761,1.761a2.648,2.648,0,0,0-1.064,0l-1.761-1.761-1.414,1.414,1.4,1.4a2.952,2.952,0,0,0,.125,3.938,4.328,4.328,0,0,0-.5.884A2.563,2.563,0,0,0,47.2,24.488Zm-1.317,1.837a3.838,3.838,0,0,1-.967,1.293c-.908.906-2.417,1.165-2.781.8-.115-.115-.423-.423.87-1.716.907-.906,2.419-1.165,2.781-.8A.326.326,0,0,1,45.882,26.325Zm8.2-.423a.869.869,0,0,1,.578-.151,2.512,2.512,0,0,1,.5.055,3.507,3.507,0,0,1,1.7.9c1.292,1.293.985,1.6.87,1.716-.362.361-1.874.1-2.781-.8a3.823,3.823,0,0,1-.967-1.293A.325.325,0,0,1,54.082,25.9ZM49.889,32.94c-.382-.392-.97-2.059-.97-4.5,0-2.545.8-3.444,1-3.444s1,.9,1,3.444A8.259,8.259,0,0,1,49.889,32.94ZM51.219,22a1,1,0,1,1-1-1A1,1,0,0,1,51.219,22Z"/><path d="M61.02,3.8a2.926,2.926,0,0,0-2.236-.79l-11.857.873a1,1,0,0,0-.927,1V6H27.816A2.986,2.986,0,0,0,23.9,4.211,3,3,0,0,0,19,2.766,2.987,2.987,0,0,0,14.116,4.22,2.99,2.99,0,0,0,10,7v4a3,3,0,0,0,3,3,2.966,2.966,0,0,0,1-.184V19a3,3,0,0,0,6,0V15.829a3.1,3.1,0,0,0,2,0V16a3,3,0,0,0,6,0V12H46v1.122a1,1,0,0,0,.927,1l11.857.873q.111.009.222.009a2.935,2.935,0,0,0,2.014-.8A3.1,3.1,0,0,0,62,11.938V6.062A3.1,3.1,0,0,0,61.02,3.8ZM25,6a1,1,0,0,1,1,1v4a1,1,0,0,1-2,0V7A1,1,0,0,1,25,6ZM16,5a1,1,0,0,1,2,0v8a1,1,0,0,1-2,0Zm-3,7a1,1,0,0,1-1-1V7a1,1,0,0,1,2,0v4A1,1,0,0,1,13,12Zm4,8a1,1,0,0,1-1-1V15.816a2.809,2.809,0,0,0,2,0V19A1,1,0,0,1,17,20Zm4-6a1,1,0,0,1-1-1V5a1,1,0,0,1,2,0v8A1,1,0,0,1,21,14Zm4,3a1,1,0,0,1-1-1V13.816a2.809,2.809,0,0,0,2,0V16A1,1,0,0,1,25,17Zm3-7V8H46v2Zm32,1.938a1.078,1.078,0,0,1-.342.8.949.949,0,0,1-.727.261L48,12.193V5.807L58.931,5a.947.947,0,0,1,.727.261,1.078,1.078,0,0,1,.342.8Z"/></g></svg>
