<svg xmlns="http://www.w3.org/2000/svg" viewBox="0 0 200 280" version="1.1" xmlns:xlink="http://www.w3.org/1999/xlink" xmlns:svgjs="http://svgjs.com/svgjs" 
height="56.32317684608768" width="64.41015625"><defs id="SvgjsDefs9758"></defs><g id="SvgjsG9759" rel="mainfill" name="main_text" 
xmlns:name="main_text" transform="translate(-3.19921875,-13.676823153912338)" fill="#ffffff">
<path d="M117.11 216.02Q117.11 225.01 119.61 230.51Q122.11 236.00 131.10 236.00L135.10 236.00L135.10 240L117.11 240Q111.91 240 108.42 239.10Q104.92 238.20 102.82 235.50Q100.72 232.81 99.92 228.21Q99.12 223.61 99.12 216.02L99.12 176.05L39.17 176.05L39.17 240L21.18 240L21.18 132.08Q21.18 123.09 18.69 117.59Q16.19 112.10 7.19 112.10L3.20 112.10L3.20 108.10L21.18 108.10Q26.38 108.10 29.88 109.00Q33.37 109.90 35.47 112.60Q37.57 115.30 38.37 119.99Q39.17 124.69 39.17 132.08L39.17 168.06L99.12 168.06L99.12 108.10L117.11 108.10L117.11 216.02ZM232.62 202.03Q232.62 186.24 222.93 178.65Q213.24 171.05 196.65 171.05Q192.05 171.05 187.16 171.75Q182.26 172.45 177.66 173.85L177.66 230.21Q182.26 231.61 187.16 232.31Q192.05 233.01 196.65 233.01Q213.24 233.01 222.93 225.41Q232.62 217.82 232.62 202.03M225.83 108.10Q231.02 108.10 234.32 109.50Q237.62 110.90 239.52 113.10Q241.41 115.30 242.11 118.19Q242.81 121.09 242.81 124.09L242.81 139.08L238.82 139.08Q238.82 127.09 232.32 121.59Q225.83 116.10 213.84 116.10L177.66 116.10L177.66 164.06L199.65 164.06Q208.24 164.06 217.63 165.46Q227.03 166.86 234.82 171.05Q242.61 175.25 247.61 182.64Q252.61 190.04 252.61 202.03Q252.61 214.02 247.61 221.41Q242.61 228.81 234.82 233.01Q227.03 237.20 217.63 238.60Q208.24 240 199.65 240L159.68 240L159.68 132.08Q159.68 123.09 157.18 117.59Q154.68 112.10 145.69 112.10L141.69 112.10L141.69 108.10L225.83 108.10Z" 
fill="#ffffff" style="fill: rgb(128, 0, 128);"></path></g><g id="SvgjsG9760" rel="mainfill" name="symbol" xmlns:name="symbol_mainfill" transform="translate(81.29987516923525,-3.6928332827209234) scale(0.8681040591152951)" 
fill="#ffffff"><g fill="#ffffff"><path d="M33.584,64.018c-3.619-3.229-4.648-6.004-6.289-5.232c-2.729,1.28,3.674,8.07,4.898,8.85s2.561,3.229,2.561,3.229   c-1.17-0.39-2.227-0.392-8.906-1.948c-6.68-1.561-11.578-7.682-11.355-9.798c0.223-2.115-0.389-4.118-2.115-3.618   c-1.725,0.502-1.337,8.404,2.729,13.916c4.063,5.512,8.18,8.158,13.563,9.09c4.501,0.78,7.086,2.935,8.031,3.88   c0.68,0.676-0.638,7.304-1.443,11.024c3.495,1.222,7.188,2.019,11.02,2.335V83.683c0,0,4.063-2.966,0.611-8.867   C43.436,68.916,37.204,67.246,33.584,64.018z" 
fill="#ffffff" style="fill: rgb(128, 0, 128);"></path>
<path d="M87.623,55.5c-1.728-0.5-2.339,1.503-2.116,3.618c0.223,2.116-4.675,8.237-11.354,9.798   c-6.681,1.557-7.737,1.559-8.907,1.948c0,0,1.336-2.45,2.562-3.229c1.224-0.779,7.627-7.569,4.899-8.85   c-1.642-0.771-2.672,2.003-6.29,5.232c-3.618,3.229-9.852,4.898-13.303,10.798c-3.451,5.901,0.612,8.867,0.612,8.867v12.063   c3.829-0.316,7.522-1.113,11.017-2.335c-0.803-3.721-2.121-10.349-1.443-11.024c0.946-0.945,3.531-3.1,8.031-3.88   c5.384-0.932,9.501-3.578,13.563-9.09C88.957,63.904,89.348,56.002,87.623,55.5z" 
fill="#ffffff" style="fill: rgb(128, 0, 128);"></path><path d="M54.462,20.871c-1.555,6.006,0.392,19.695,0.392,19.695c20.28-18.514-1.479-36.312-1.479-36.312   C37.167,26.1,51.786,40.928,51.786,40.928C49.783,34.174,54.462,20.871,54.462,20.871z"
 fill="#ffffff" style="fill: rgb(128, 0, 128);"></path><path d="M46.417,42.547c-6.055-1.647-13.936-11.426-13.936-11.426c3.819,3.992,15.1,8.934,15.1,8.934   C43.065,16.02,19.389,24.156,19.389,24.156C28.334,46.667,46.417,42.547,46.417,42.547z" 
 fill="#ffffff" style="fill: rgb(128, 0, 128);"></path><path d="M22.083,51.727c14.334,6.354,20.826-3.743,20.826-3.743c-3.545,1.98-11.619,1.031-11.619,1.031   c3.574,0.115,11.027-2.712,11.027-2.712C29.34,37.239,22.083,51.727,22.083,51.727z" 
fill="#ffffff" style="fill: rgb(128, 0, 128);"></path>
<path d="M78.477,53.035c-7.099-8.424-14.307-4.043-14.307-4.043c2.85-0.161,7.657,2.924,7.657,2.924   c-2.223-1.174-7.801-1.682-7.801-1.682C69.434,59.953,78.477,53.035,78.477,53.035z"
 fill="#ffffff" style="fill: rgb(128, 0, 128);"></path><path d="M56.813,43.359c3.865-4.816,15.806-8.094,15.806-8.094c-5.11,1.883-14.011,10.123-14.011,10.123   c23.489,5.379,25.45-19.209,25.45-19.209C60.202,25.402,56.813,43.359,56.813,43.359z" 
fill="#ffffff" style="fill: rgb(128, 0, 128);"></path></g></g></svg>