<?xml version="1.0" encoding="UTF-8" standalone="no"?>
<svg
   xmlns:dc="http://purl.org/dc/elements/1.1/"
   xmlns:cc="http://creativecommons.org/ns#"
   xmlns:rdf="http://www.w3.org/1999/02/22-rdf-syntax-ns#"
   xmlns:svg="http://www.w3.org/2000/svg"
   xmlns="http://www.w3.org/2000/svg"
   xmlns:sodipodi="http://sodipodi.sourceforge.net/DTD/sodipodi-0.dtd"
   xmlns:inkscape="http://www.inkscape.org/namespaces/inkscape"
   id="regular"
   enable-background="new 0 0 24 24"
   height="512"
   viewBox="0 0 24 24"
   width="512"
   version="1.1"
   sodipodi:docname="vk(1).svg"
   inkscape:version="0.92.4 (5da689c313, 2019-01-14)">
  <metadata
     id="metadata26">
    <rdf:RDF>
      <cc:Work
         rdf:about="">
        <dc:format>image/svg+xml</dc:format>
        <dc:type
           rdf:resource="http://purl.org/dc/dcmitype/StillImage" />
        <dc:title></dc:title>
      </cc:Work>
    </rdf:RDF>
  </metadata>
  <defs
     id="defs24" />
  <sodipodi:namedview
     pagecolor="#ffffff"
     bordercolor="#666666"
     borderopacity="1"
     objecttolerance="10"
     gridtolerance="10"
     guidetolerance="10"
     inkscape:pageopacity="0"
     inkscape:pageshadow="2"
     inkscape:window-width="1920"
     inkscape:window-height="1001"
     id="namedview22"
     showgrid="false"
     inkscape:zoom="1.3504346"
     inkscape:cx="256"
     inkscape:cy="256"
     inkscape:window-x="-9"
     inkscape:window-y="-9"
     inkscape:window-maximized="1"
     inkscape:current-layer="regular" />
  <path
     d="m 1.214501,19.5 c 0.3472002,0 0.2234002,-0.2198 0.2502002,-0.283 -4e-4,-0.0472 -8e-4,-0.0926 8e-4,-0.1202 0.022,0.0062 0.0739,0.0325 0.1811001,0.1367 0.1655001,0.167 0.2078002,0.2665 0.3415003,0.2665 h 0.2461002 c 0.078,0 0.1186001,-0.0323 0.1389001,-0.0594 0.0196,-0.0262 0.0388,-0.0722 0.0178,-0.1438 -0.0549,-0.1724 -0.3751003,-0.4701 -0.3950003,-0.5015 0.003,-0.0058 0.0078,-0.0135 0.0103,-0.0175 h -2e-4 c 0.0632,-0.0835 0.3044002,-0.4449 0.3399003,-0.5895 1e-4,-2e-4 2e-4,-5e-4 2e-4,-8e-4 0.0192,-0.066 0.0016,-0.1088 -0.0166,-0.133 C 2.3021018,18.0183 2.2585018,18 2.1996018,18 H 1.9535016 c -0.0824,0 -0.1449002,0.0415 -0.1765002,0.1172 -0.0529,0.1345 -0.2015001,0.4111 -0.3129002,0.509 -0.0034,-0.1387 -0.0011,-0.2446 7e-4,-0.3233 C 1.4684012,18.1494 1.4800012,18 1.3207011,18 H 0.93390075 c -0.0998001,0 -0.19530016,0.109 -0.0919001,0.2384 0.0904001,0.1134 0.0325,0.1766 0.052,0.4912 -0.076,-0.0815 -0.2112001,-0.3016 -0.30680018,-0.5829 -0.0268,-0.0761 -0.0674,-0.1466 -0.18170015,-0.1466 H 0.15940013 C 0.05960005,18.0001 0,18.0545 0,18.1456 0,18.3502 0.45290036,19.5 1.214501,19.5 Z M 0.40550032,18.1501 c 0.0217,0 0.0239,0 0.04,0.0457 0.0979001,0.2883 0.31750025,0.7149 0.47790038,0.7149 0.1205001,0 0.1205001,-0.1235 0.1205001,-0.17 l -10e-5,-0.3702 c -0.0066,-0.1225 -0.0512,-0.1835 -0.0805,-0.2205 l 0.3508003,4e-4 c 2e-4,0.0017 -0.002,0.4095 10e-4,0.5083 0,0.1403 0.1114,0.2207 0.2853002,0.0447 0.1835001,-0.2071 0.3104002,-0.5167 0.3155002,-0.5293 0.0075,-0.018 0.014,-0.0241 0.0376,-0.0241 h 0.2461002 10e-4 c -1e-4,3e-4 -1e-4,6e-4 -2e-4,9e-4 -0.0225,0.105 -0.2446002,0.4396 -0.3189003,0.5435 -0.0012,0.0016 -0.0023,0.0033 -0.0034,0.005 -0.0327,0.0534 -0.0593,0.1124 0.0045,0.1954 h 10e-5 c 0.0058,0.007 0.0209,0.0234 0.0429,0.0462 0.0684,0.0706 0.3030003,0.312 0.3238003,0.408 -0.0138,0.0022 -0.0288,6e-4 -0.2613002,0.0011 -0.0495,0 -0.0882,-0.074 -0.2359002,-0.223 -0.1328001,-0.1292 -0.2190002,-0.182 -0.2975002,-0.182 -0.1524002,0 -0.1413001,0.1237 -0.1399001,0.2733 5e-4,0.1622 -5e-4,0.1109 6e-4,0.1211 -0.0089,0.0035 -0.0344,0.0105 -0.1009001,0.0105 -0.63450051,0 -1.04770084,-1.0071 -1.06360085,-1.1996 0.0055,-5e-4 0.0812001,-2e-4 0.25460027,-3e-4 z"
     id="path19"
     inkscape:connector-curvature="0"
     style="stroke-width:1" />
</svg>
